<?xml version="1.0" encoding="UTF-8" standalone="no"?>
<!-- Created with Inkscape (http://www.inkscape.org/) -->

<svg
   xmlns:dc="http://purl.org/dc/elements/1.1/"
   xmlns:cc="http://creativecommons.org/ns#"
   xmlns:rdf="http://www.w3.org/1999/02/22-rdf-syntax-ns#"
   xmlns:svg="http://www.w3.org/2000/svg"
   xmlns="http://www.w3.org/2000/svg"
   xmlns:sodipodi="http://sodipodi.sourceforge.net/DTD/sodipodi-0.dtd"
   xmlns:inkscape="http://www.inkscape.org/namespaces/inkscape"
   width="500"
   height="500"
   viewBox="0 0 132.29166 132.29167"
   version="1.1"
   id="svg1003"
   inkscape:version="0.92.5 (2060ec1f9f, 2020-04-08)"
   sodipodi:docname="virus.svg">
  <defs
     id="defs997" />
  <sodipodi:namedview
     id="base"
     pagecolor="#ffffff"
     bordercolor="#666666"
     borderopacity="1.0"
     inkscape:pageopacity="0.0"
     inkscape:pageshadow="2"
     inkscape:zoom="1.4142136"
     inkscape:cx="391.17053"
     inkscape:cy="294.53028"
     inkscape:document-units="mm"
     inkscape:current-layer="layer1"
     showgrid="false"
     units="px"
     inkscape:window-width="1920"
     inkscape:window-height="1015"
     inkscape:window-x="0"
     inkscape:window-y="0"
     inkscape:window-maximized="1" />
  <metadata
     id="metadata1000">
    <rdf:RDF>
      <cc:Work
         rdf:about="">
        <dc:format>image/svg+xml</dc:format>
        <dc:type
           rdf:resource="http://purl.org/dc/dcmitype/StillImage" />
        <dc:title></dc:title>
      </cc:Work>
    </rdf:RDF>
  </metadata>
  <g
     inkscape:label="Capa 1"
     inkscape:groupmode="layer"
     id="layer1"
     transform="translate(0,-164.70832)">
    <path
       style="fill:#000000;stroke-width:1.16644788"
       d="m 65.612962,164.70832 c -3.769199,0 -6.370746,4.18768 -6.370746,10.25348 0,9.40728 -4.015225,15.14791 -11.9768,17.12575 -5.377451,1.33587 -10.702746,-0.3872 -16.063005,-5.19766 -5.54542,-4.97664 -8.411001,-5.63426 -11.654687,-2.67434 -3.0986,2.8276 -2.607122,6.5765 1.449808,11.07935 7.323965,8.12907 8.452587,15.9584 3.262504,22.61165 -3.41723,4.38053 -8.209461,6.53825 -14.5270044,6.53826 C 3.5800886,224.44481 0,226.81416 0,230.88698 c 0,4.25001 3.8933754,6.66498 12.126649,7.52425 8.967181,0.93591 12.479431,3.61641 14.558717,11.10451 1.647515,5.93384 -0.09978,11.34171 -5.771818,17.85552 -3.917886,4.49949 -4.409247,7.98655 -1.567712,11.15256 2.939111,3.2748 5.767404,2.60248 11.518546,-2.74297 4.476969,-4.16109 6.155034,-4.95982 11.300743,-5.37609 4.94626,-0.4002 6.775102,0.0151 10.089299,2.28769 5.197168,3.56213 6.948415,7.15897 6.969673,14.32332 0.0088,3.69988 0.705796,6.53141 1.939777,7.9063 2.329263,2.59535 7.704854,2.80377 9.703523,0.37518 0.800237,-0.97225 1.806078,-5.05716 2.234712,-9.0776 0.911633,-8.55013 2.744655,-11.92028 7.795576,-14.33703 7.207923,-3.44897 13.2339,-2.10591 20.729785,4.62344 5.17673,4.64735 6.99105,5.04656 10.08698,2.22136 3.09418,-2.82356 2.61525,-7.47687 -1.19112,-11.5712 -4.70163,-5.05724 -5.97824,-7.91948 -5.97824,-13.41051 0,-10.03857 4.80118,-14.63721 16.14908,-15.46487 5.94804,-0.43384 7.8568,-1.07446 9.57877,-3.2188 2.74617,-3.41962 2.70679,-4.88986 -0.2178,-8.05499 -1.8278,-1.97825 -3.69625,-2.56224 -8.18797,-2.56224 -11.00988,0 -17.32208,-5.75925 -17.32208,-15.80574 0,-5.47121 0.49206,-6.68413 4.64645,-11.44309 10.14296,-11.61912 2.58714,-20.50699 -8.82326,-10.3793 -5.812825,5.15936 -10.504343,6.52325 -16.675522,4.84764 -6.194645,-1.68199 -9.516972,-5.79339 -10.132279,-12.53432 -1.025238,-11.23138 -2.78473,-14.4217 -7.947517,-14.42168 z m -15.237096,43.33824 c 4.184473,0 8.875758,3.59381 8.850439,6.78075 -0.03512,4.23838 -1.450157,7.03791 -4.201784,8.30207 -4.149394,1.90639 -6.626998,1.62751 -9.501524,-1.07294 -5.171961,-4.85855 -2.002735,-14.00988 4.852869,-14.00988 z m 30.521819,30.4539 c 5.15419,0 7.384837,2.24924 7.384837,7.44647 0,5.15879 -2.544398,7.78045 -7.550481,7.78048 -2.144916,0 -4.720209,-0.8293 -5.724074,-1.84161 -1.003984,-1.01236 -1.826406,-3.60917 -1.826406,-5.77187 0,-5.04786 2.600037,-7.61347 7.716124,-7.61347 z"
       id="path1565"
       inkscape:connector-curvature="0" />
  </g>
</svg>
